<svg xmlns="http://www.w3.org/2000/svg" viewBox="0 0 48 48" fill="none">
  <!-- Open Book -->
  <path d="M6 12C6 12 10 10 24 10C38 10 42 12 42 12V38C42 38 38 36 24 36C10 36 6 38 6 38V12Z" fill="#d4a853" opacity="0.15"/>
  <path d="M24 10V36" stroke="#8b6914" stroke-width="1.5" stroke-linecap="round"/>
  <!-- Left pages -->
  <path d="M6 12C6 12 10 10 24 10V36C24 36 10 36 6 38V12Z" stroke="#8b6914" stroke-width="1.8" fill="none"/>
  <!-- Right pages -->
  <path d="M42 12C42 12 38 10 24 10V36C24 36 38 36 42 38V12Z" stroke="#8b6914" stroke-width="1.8" fill="none"/>
  <!-- Cross -->
  <line x1="24" y1="4" x2="24" y2="10" stroke="#8b6914" stroke-width="2" stroke-linecap="round"/>
  <line x1="20" y1="6.5" x2="28" y2="6.5" stroke="#8b6914" stroke-width="2" stroke-linecap="round"/>
  <!-- Page lines left -->
  <line x1="10" y1="17" x2="21" y2="17" stroke="#8b6914" stroke-width="0.7" opacity="0.4"/>
  <line x1="11" y1="21" x2="21" y2="21" stroke="#8b6914" stroke-width="0.7" opacity="0.4"/>
  <line x1="10" y1="25" x2="21" y2="25" stroke="#8b6914" stroke-width="0.7" opacity="0.4"/>
  <line x1="12" y1="29" x2="21" y2="29" stroke="#8b6914" stroke-width="0.7" opacity="0.4"/>
  <!-- Page lines right -->
  <line x1="27" y1="17" x2="38" y2="17" stroke="#8b6914" stroke-width="0.7" opacity="0.4"/>
  <line x1="27" y1="21" x2="37" y2="21" stroke="#8b6914" stroke-width="0.7" opacity="0.4"/>
  <line x1="27" y1="25" x2="38" y2="25" stroke="#8b6914" stroke-width="0.7" opacity="0.4"/>
  <line x1="27" y1="29" x2="36" y2="29" stroke="#8b6914" stroke-width="0.7" opacity="0.4"/>
</svg>
